ply
format ascii 1.0
comment Created by Open3D
element vertex 24
property double x
property double y
property double z
property double nx
property double ny
property double nz
element face 12
property list uchar uint vertex_indices
end_header
-101.5 290 -292.5 6.12323e-17 1 0
-101.5 290 292.5 6.12323e-17 1 0
101.5 290 -292.5 6.12323e-17 1 0
101.5 290 292.5 6.12323e-17 1 0
-101.5 -290 -292.5 1.25122e-07 -7.66152e-24 -1
-101.5 290 -292.5 1.25123e-07 -7.66155e-24 -1
101.5 -290 -292.5 1.25123e-07 -7.66155e-24 -1
101.5 290 -292.5 1.25122e-07 -7.66152e-24 -1
-101.5 -290 292.5 -6.12323e-17 -1 0
-101.5 -290 -292.5 -6.12323e-17 -1 0
101.5 -290 292.5 -6.12323e-17 -1 0
101.5 -290 -292.5 -6.12323e-17 -1 0
-101.5 290 292.5 -6.12323e-17 3.7494e-33 1
-101.5 -290 292.5 -6.12323e-17 3.7494e-33 1
101.5 290 292.5 -6.12323e-17 3.7494e-33 1
101.5 -290 292.5 -6.12323e-17 3.7494e-33 1
101.5 -290 292.5 1 -6.12323e-17 8.68374e-08
101.5 -290 -292.5 1 -6.12323e-17 8.68375e-08
101.5 290 292.5 1 -6.12323e-17 8.68375e-08
101.5 290 -292.5 1 -6.12323e-17 8.68374e-08
-101.5 290 292.5 -1 6.12323e-17 -8.68374e-08
-101.5 290 -292.5 -1 6.12323e-17 -8.68375e-08
-101.5 -290 292.5 -1 6.12323e-17 -8.68375e-08
-101.5 -290 -292.5 -1 6.12323e-17 -8.68374e-08
3 0 1 2
3 2 1 3
3 4 5 6
3 6 5 7
3 8 9 10
3 10 9 11
3 12 13 14
3 14 13 15
3 16 17 18
3 18 17 19
3 20 21 22
3 22 21 23
