ply
format ascii 1.0
comment Created by Open3D
element vertex 444
property double x
property double y
property double z
property double nx
property double ny
property double nz
element face 308
property list uchar uint vertex_indices
end_header
140 100 60.4754 0 -0.455656 0.890156
140 60 40 0 -0.455656 0.890156
150 100 60.4754 0 -0.455656 0.890156
150 60 40 0 -0.455656 0.890156
-140 60 40 0 -0.455656 0.890156
-140 100 60.4754 0 -0.455656 0.890156
-150 60 40 0 -0.455656 0.890156
-150 100 60.4754 0 -0.455656 0.890156
150 60 40 0 0.132635 0.991165
140 60 40 0 0.132635 0.991165
150 36.1065 43.1974 0 0.132635 0.991165
140 36.1065 43.1974 0 0.132635 0.991165
150 36.1065 43.1974 0 0.0664626 0.997789
140 36.1065 43.1974 0 0.0664626 0.997789
150 12.0533 44.7996 0 0.0664626 0.997789
140 12.0533 44.7996 0 0.0664626 0.997789
150 12.0533 44.7996 0 0 1
140 12.0533 44.7996 0 0 1
150 -12.0533 44.7996 0 0 1
140 -12.0533 44.7996 0 0 1
150 -12.0533 44.7996 0 -0.0664626 0.997789
140 -12.0533 44.7996 0 -0.0664626 0.997789
150 -36.1065 43.1974 0 -0.0664626 0.997789
140 -36.1065 43.1974 0 -0.0664626 0.997789
150 -36.1065 43.1974 0 -0.132635 0.991165
140 -36.1065 43.1974 0 -0.132635 0.991165
150 -60 40 0 -0.132635 0.991165
140 -60 40 0 -0.132635 0.991165
-150 -60 40 0 -0.132635 0.991165
-140 -60 40 0 -0.132635 0.991165
-150 -36.1065 43.1974 0 -0.132635 0.991165
-140 -36.1065 43.1974 0 -0.132635 0.991165
-150 -36.1065 43.1974 0 -0.0664626 0.997789
-140 -36.1065 43.1974 0 -0.0664626 0.997789
-150 -12.0533 44.7996 0 -0.0664626 0.997789
-140 -12.0533 44.7996 0 -0.0664626 0.997789
-150 -12.0533 44.7996 0 0 1
-140 -12.0533 44.7996 0 0 1
-150 12.0533 44.7996 0 0 1
-140 12.0533 44.7996 0 0 1
-150 12.0533 44.7996 0 0.0664626 0.997789
-140 12.0533 44.7996 0 0.0664626 0.997789
-150 36.1065 43.1974 0 0.0664626 0.997789
-140 36.1065 43.1974 0 0.0664626 0.997789
-150 36.1065 43.1974 0 0.132635 0.991165
-140 36.1065 43.1974 0 0.132635 0.991165
-150 60 40 0 0.132635 0.991165
-140 60 40 0 0.132635 0.991165
150 -100 75 0 0.395474 -0.918477
140 -100 75 0 0.395474 -0.918477
150 -80.6917 83.3137 0 0.395474 -0.918477
140 -80.6917 83.3137 0 0.395474 -0.918477
150 -80.6917 83.3137 0 0.295637 -0.9553
140 -80.6917 83.3137 0 0.295637 -0.9553
150 -60.6094 89.5285 0 0.295637 -0.9553
140 -60.6094 89.5285 0 0.295637 -0.9553
150 -60.6094 89.5285 0 0.19245 -0.981307
140 -60.6094 89.5285 0 0.19245 -0.981307
150 -39.9804 93.5742 0 0.19245 -0.981307
140 -39.9804 93.5742 0 0.19245 -0.981307
150 -39.9804 93.5742 0 0.0870863 -0.996201
140 -39.9804 93.5742 0 0.0870863 -0.996201
150 -19.0382 95.405 0 0.0870863 -0.996201
140 -19.0382 95.405 0 0.0870863 -0.996201
150 -19.0382 95.405 0 -0.0192645 -0.999814
140 -19.0382 95.405 0 -0.0192645 -0.999814
150 1.97985 95 0 -0.0192645 -0.999814
140 1.97985 95 0 -0.0192645 -0.999814
150 1.97985 95 0 -0.125395 -0.992107
140 1.97985 95 0 -0.125395 -0.992107
150 22.836 92.3639 0 -0.125395 -0.992107
140 22.836 92.3639 0 -0.125395 -0.992107
150 22.836 92.3639 0 -0.230109 -0.973165
140 22.836 92.3639 0 -0.230109 -0.973165
150 43.2939 87.5266 0 -0.230109 -0.973165
140 43.2939 87.5266 0 -0.230109 -0.973165
150 43.2939 87.5266 0 -0.332215 -0.943204
140 43.2939 87.5266 0 -0.332215 -0.943204
150 63.1219 80.5427 0 -0.332215 -0.943204
140 63.1219 80.5427 0 -0.332215 -0.943204
150 63.1219 80.5427 0 -0.430559 -0.902562
140 63.1219 80.5427 0 -0.430559 -0.902562
150 82.0956 71.4915 0 -0.430559 -0.902562
140 82.0956 71.4915 0 -0.430559 -0.902562
150 82.0956 71.4915 0 -0.524029 -0.8517
140 82.0956 71.4915 0 -0.524029 -0.8517
150 100 60.4754 0 -0.524029 -0.8517
140 100 60.4754 0 -0.524029 -0.8517
140 -60 40 0 0.658505 0.752576
140 -100 75 0 0.658505 0.752576
150 -60 40 0 0.658505 0.752576
150 -100 75 0 0.658505 0.752576
-140 -100 75 0 0.658505 0.752576
-140 -60 40 0 0.658505 0.752576
-150 -100 75 0 0.658505 0.752576
-150 -60 40 0 0.658505 0.752576
-150 100 60.4754 0 -0.524029 -0.8517
-140 100 60.4754 0 -0.524029 -0.8517
-150 82.0956 71.4915 0 -0.524029 -0.8517
-140 82.0956 71.4915 0 -0.524029 -0.8517
-150 82.0956 71.4915 0 -0.430559 -0.902562
-140 82.0956 71.4915 0 -0.430559 -0.902562
-150 63.1219 80.5427 0 -0.430559 -0.902562
-140 63.1219 80.5427 0 -0.430559 -0.902562
-150 63.1219 80.5427 0 -0.332215 -0.943204
-140 63.1219 80.5427 0 -0.332215 -0.943204
-150 43.2939 87.5266 0 -0.332215 -0.943204
-140 43.2939 87.5266 0 -0.332215 -0.943204
-150 43.2939 87.5266 0 -0.230109 -0.973165
-140 43.2939 87.5266 0 -0.230109 -0.973165
-150 22.836 92.3639 0 -0.230109 -0.973165
-140 22.836 92.3639 0 -0.230109 -0.973165
-150 22.836 92.3639 0 -0.125395 -0.992107
-140 22.836 92.3639 0 -0.125395 -0.992107
-150 1.97985 95 0 -0.125395 -0.992107
-140 1.97985 95 0 -0.125395 -0.992107
-150 1.97985 95 0 -0.0192645 -0.999814
-140 1.97985 95 0 -0.0192645 -0.999814
-150 -19.0382 95.405 0 -0.0192645 -0.999814
-140 -19.0382 95.405 0 -0.0192645 -0.999814
-150 -19.0382 95.405 0 0.0870863 -0.996201
-140 -19.0382 95.405 0 0.0870863 -0.996201
-150 -39.9804 93.5742 0 0.0870863 -0.996201
-140 -39.9804 93.5742 0 0.0870863 -0.996201
-150 -39.9804 93.5742 0 0.19245 -0.981307
-140 -39.9804 93.5742 0 0.19245 -0.981307
-150 -60.6094 89.5285 0 0.19245 -0.981307
-140 -60.6094 89.5285 0 0.19245 -0.981307
-150 -60.6094 89.5285 0 0.295637 -0.9553
-140 -60.6094 89.5285 0 0.295637 -0.9553
-150 -80.6917 83.3137 0 0.295637 -0.9553
-140 -80.6917 83.3137 0 0.295637 -0.9553
-150 -80.6917 83.3137 0 0.395474 -0.918477
-140 -80.6917 83.3137 0 0.395474 -0.918477
-150 -100 75 0 0.395474 -0.918477
-140 -100 75 0 0.395474 -0.918477
80 -190 73.2773 -0.742734 0 0.669586
50 -190 40 -0.742734 0 0.669586
80 -200 73.2773 -0.742734 0 0.669586
50 -200 40 -0.742734 0 0.669586
50 190 40 -0.742734 0 0.669586
80 190 73.2773 -0.742734 0 0.669586
50 200 40 -0.742734 0 0.669586
80 200 73.2773 -0.742734 0 0.669586
50 -200 40 0.158795 0 0.987312
50 -190 40 0.158795 0 0.987312
30.1277 -200 43.1962 0.158795 0 0.987312
30.1277 -190 43.1962 0.158795 0 0.987312
30.1277 -200 43.1962 0.0796499 0 0.996823
30.1277 -190 43.1962 0.0796499 0 0.996823
10.0639 -200 44.7994 0.0796499 0 0.996823
10.0639 -190 44.7994 0.0796499 0 0.996823
10.0639 -200 44.7994 0 0 1
10.0639 -190 44.7994 0 0 1
-10.0639 -200 44.7994 0 0 1
-10.0639 -190 44.7994 0 0 1
-10.0639 -200 44.7994 -0.0796499 0 0.996823
-10.0639 -190 44.7994 -0.0796499 0 0.996823
-30.1277 -200 43.1962 -0.0796499 0 0.996823
-30.1277 -190 43.1962 -0.0796499 0 0.996823
-30.1277 -200 43.1962 -0.158795 0 0.987312
-30.1277 -190 43.1962 -0.158795 0 0.987312
-50 -200 40 -0.158795 0 0.987312
-50 -190 40 -0.158795 0 0.987312
-50 200 40 -0.158795 0 0.987312
-50 190 40 -0.158795 0 0.987312
-30.1277 200 43.1962 -0.158795 0 0.987312
-30.1277 190 43.1962 -0.158795 0 0.987312
-30.1277 200 43.1962 -0.0796499 0 0.996823
-30.1277 190 43.1962 -0.0796499 0 0.996823
-10.0639 200 44.7994 -0.0796499 0 0.996823
-10.0639 190 44.7994 -0.0796499 0 0.996823
-10.0639 200 44.7994 0 0 1
-10.0639 190 44.7994 0 0 1
10.0639 200 44.7994 0 0 1
10.0639 190 44.7994 0 0 1
10.0639 200 44.7994 0.0796499 0 0.996823
10.0639 190 44.7994 0.0796499 0 0.996823
30.1277 200 43.1962 0.0796499 0 0.996823
30.1277 190 43.1962 0.0796499 0 0.996823
30.1277 200 43.1962 0.158795 0 0.987312
30.1277 190 43.1962 0.158795 0 0.987312
50 200 40 0.158795 0 0.987312
50 190 40 0.158795 0 0.987312
-80 -200 76.627 0.403726 0 -0.91488
-80 -190 76.627 0.403726 0 -0.91488
-63.0675 -200 84.0991 0.403726 0 -0.91488
-63.0675 -190 84.0991 0.403726 0 -0.91488
-63.0675 -200 84.0991 0.301682 0 -0.953409
-63.0675 -190 84.0991 0.301682 0 -0.953409
-45.422 -200 89.6826 0.301682 0 -0.953409
-45.422 -190 89.6826 0.301682 0 -0.953409
-45.422 -200 89.6826 0.196048 0 -0.980594
-45.422 -190 89.6826 0.196048 0 -0.980594
-27.2734 -200 93.311 0.196048 0 -0.980594
-27.2734 -190 93.311 0.196048 0 -0.980594
-27.2734 -200 93.311 0.0880842 0 -0.996113
-27.2734 -190 93.311 0.0880842 0 -0.996113
-8.83745 -200 94.9412 0.0880842 0 -0.996113
-8.83745 -190 94.9412 0.0880842 0 -0.996113
-8.83745 -200 94.9412 -0.0209317 0 -0.999781
-8.83745 -190 94.9412 -0.0209317 0 -0.999781
9.66633 -200 94.5538 -0.0209317 0 -0.999781
9.66633 -190 94.5538 -0.0209317 0 -0.999781
9.66633 -200 94.5538 -0.129695 0 -0.991554
9.66633 -190 94.5538 -0.129695 0 -0.991554
28.0178 -200 92.1535 -0.129695 0 -0.991554
28.0178 -190 92.1535 -0.129695 0 -0.991554
28.0178 -200 92.1535 -0.236917 0 -0.97153
28.0178 -190 92.1535 -0.236917 0 -0.97153
45.9987 -200 87.7686 -0.236917 0 -0.97153
45.9987 -190 87.7686 -0.236917 0 -0.97153
45.9987 -200 87.7686 -0.341319 0 -0.939947
45.9987 -190 87.7686 -0.341319 0 -0.939947
63.3951 -200 81.4516 -0.341319 0 -0.939947
63.3951 -190 81.4516 -0.341319 0 -0.939947
63.3951 -200 81.4516 -0.441663 0 -0.897181
63.3951 -190 81.4516 -0.441663 0 -0.897181
80 -200 73.2773 -0.441663 0 -0.897181
80 -190 73.2773 -0.441663 0 -0.897181
-50 -190 40 0.773621 0 0.633648
-80 -190 76.627 0.773621 0 0.633648
-50 -200 40 0.773621 0 0.633648
-80 -200 76.627 0.773621 0 0.633648
-80 190 76.627 0.773621 0 0.633648
-50 190 40 0.773621 0 0.633648
-80 200 76.627 0.773621 0 0.633648
-50 200 40 0.773621 0 0.633648
80 200 73.2773 -0.441663 0 -0.897181
80 190 73.2773 -0.441663 0 -0.897181
63.3951 200 81.4515 -0.441663 0 -0.897181
63.3951 190 81.4515 -0.441663 0 -0.897181
63.3951 200 81.4515 -0.341319 0 -0.939947
63.3951 190 81.4515 -0.341319 0 -0.939947
45.9987 200 87.7686 -0.341319 0 -0.939947
45.9987 190 87.7686 -0.341319 0 -0.939947
45.9987 200 87.7686 -0.236917 0 -0.97153
45.9987 190 87.7686 -0.236917 0 -0.97153
28.0178 200 92.1534 -0.236917 0 -0.97153
28.0178 190 92.1534 -0.236917 0 -0.97153
28.0178 200 92.1534 -0.129695 0 -0.991554
28.0178 190 92.1534 -0.129695 0 -0.991554
9.66633 200 94.5538 -0.129695 0 -0.991554
9.66633 190 94.5538 -0.129695 0 -0.991554
9.66633 200 94.5538 -0.0209317 0 -0.999781
9.66633 190 94.5538 -0.0209317 0 -0.999781
-8.83745 200 94.9412 -0.0209317 0 -0.999781
-8.83745 190 94.9412 -0.0209317 0 -0.999781
-8.83745 200 94.9412 0.0880842 0 -0.996113
-8.83745 190 94.9412 0.0880842 0 -0.996113
-27.2734 200 93.311 0.0880842 0 -0.996113
-27.2734 190 93.311 0.0880842 0 -0.996113
-27.2734 200 93.311 0.196048 0 -0.980594
-27.2734 190 93.311 0.196048 0 -0.980594
-45.422 200 89.6825 0.196048 0 -0.980594
-45.422 190 89.6825 0.196048 0 -0.980594
-45.422 200 89.6825 0.301682 0 -0.953409
-45.422 190 89.6825 0.301682 0 -0.953409
-63.0675 200 84.0991 0.301682 0 -0.953409
-63.0675 190 84.0991 0.301682 0 -0.953409
-63.0675 200 84.0991 0.403726 0 -0.91488
-63.0675 190 84.0991 0.403726 0 -0.91488
-80 200 76.627 0.403726 0 -0.91488
-80 190 76.627 0.403726 0 -0.91488
-30.1277 190 43.1962 -1.96911e-08 -1 1.63853e-07
-50 190 40 7.55551e-08 -1 1.12714e-07
-140 190 -125 2.95317e-08 -1 1.34213e-07
-80 190 76.627 9.54353e-08 -1 9.04124e-08
-140 190 135 4.67723e-08 -1 4.80759e-08
-63.0675 190 84.0991 0 -1 0
-45.422 190 89.6825 0 -1 0
-27.2734 190 93.311 0 -1 0
-8.83745 190 94.9412 0 -1 0
140 190 135 -4.77048e-08 -1 4.63733e-08
9.66633 190 94.5538 0 -1 0
28.0178 190 92.1534 0 -1 0
45.9987 190 87.7686 0 -1 0
63.3951 190 81.4515 0 -1 0
80 190 73.2773 -9.62839e-08 -1 9.12163e-08
140 190 -125 -2.83913e-08 -1 1.35365e-07
50 190 40 -6.98586e-08 -1 1.15821e-07
30.1277 190 43.1962 1.96911e-08 -1 1.63853e-07
10.0639 190 44.7994 6.15376e-09 -1 1.54275e-07
-10.0639 190 44.7994 -7.51843e-10 -1 1.50161e-07
-140 -36.1065 43.1974 1 0 0
-140 -60 40 1 0 0
-140 -190 -125 1 0 0
-140 -100 75 1 0 0
-140 -190 135 1 0 0
-140 -80.6917 83.3137 1 0 0
-140 -60.6094 89.5285 1 0 0
-140 -39.9804 93.5742 1 0 0
-140 -19.0382 95.405 1 0 0
-140 190 135 1 0 0
-140 1.97985 95 1 0 0
-140 22.836 92.3639 1 0 0
-140 43.2939 87.5266 1 0 0
-140 63.1219 80.5427 1 0 0
-140 82.0956 71.4915 1 0 0
-140 100 60.4754 1 0 0
-140 190 -125 1 0 0
-140 60 40 1 0 0
-140 36.1065 43.1974 1 0 0
-140 12.0533 44.7996 1 0 0
-140 -12.0533 44.7996 1 0 0
-50 -190 40 0 1 0
-140 -190 -125 -1.78022e-08 1 -1.19222e-07
-80 -190 76.627 1.07116e-07 1 -1.50687e-07
-140 -190 135 -4.67723e-08 1 -4.80759e-08
-63.0675 -190 84.0991 0 1 -0
-45.422 -190 89.6826 0 1 -0
-27.2734 -190 93.311 0 1 -0
-8.83745 -190 94.9412 0 1 0
140 -190 135 4.77048e-08 1 -4.63733e-08
9.66633 -190 94.5538 -0 1 0
28.0178 -190 92.1535 -0 1 0
45.9987 -190 87.7686 0 1 0
63.3951 -190 81.4516 -0 1 0
80 -190 73.2773 -1.04673e-07 1 -1.52027e-07
140 -190 -125 1.97599e-08 1 -1.18345e-07
50 -190 40 0 1 0
30.1277 -190 43.1962 6.70396e-07 1 2.86939e-07
10.0639 -190 44.7994 -7.51843e-10 1 -1.50161e-07
-10.0639 -190 44.7994 6.15376e-09 1 -1.54275e-07
-30.1277 -190 43.1962 -6.70396e-07 1 2.86939e-07
140 -60 40 -1 0 0
140 -190 -125 -1 0 0
140 -100 75 -1 0 0
140 -190 135 -1 0 0
140 -80.6917 83.3137 -1 0 0
140 -60.6094 89.5285 -1 0 0
140 -39.9804 93.5742 -1 0 0
140 -19.0382 95.405 -1 0 0
140 190 135 -1 0 0
140 1.97985 95 -1 0 0
140 22.836 92.3639 -1 0 0
140 43.2939 87.5266 -1 0 0
140 63.1219 80.5427 -1 0 0
140 82.0956 71.4915 -1 0 0
140 100 60.4754 -1 0 0
140 190 -125 -1 0 0
140 60 40 -1 0 0
140 36.1065 43.1974 -1 0 0
140 12.0533 44.7996 -1 0 0
140 -12.0533 44.7996 -1 0 0
140 -36.1065 43.1974 -1 0 0
140 -190 -125 0 6.68415e-08 1
140 190 -125 0 6.68418e-08 1
-140 -190 -125 0 6.68418e-08 1
-140 190 -125 0 6.68415e-08 1
150 -36.1065 43.1974 1 0 0
150 -60 40 1 0 0
150 -200 -135 1 0 0
150 -100 75 1 0 0
150 -200 135 1 0 0
150 -80.6917 83.3137 1 0 0
150 -60.6094 89.5285 1 0 0
150 -39.9804 93.5742 1 0 0
150 -19.0382 95.405 1 0 0
150 200 135 1 0 0
150 1.97985 95 1 0 0
150 22.836 92.3639 1 0 0
150 43.2939 87.5266 1 0 0
150 63.1219 80.5427 1 0 0
150 82.0956 71.4915 1 0 0
150 100 60.4754 1 0 0
150 200 -135 1 0 0
150 60 40 1 0 0
150 36.1065 43.1974 1 0 0
150 12.0533 44.7996 1 0 0
150 -12.0533 44.7996 1 0 0
-30.1277 -200 43.1962 -1.86335e-08 -1 1.55053e-07
-50 -200 40 7.03413e-08 -1 1.04936e-07
-150 -200 -135 2.59483e-08 -1 1.26558e-07
-80 -200 76.627 8.22843e-08 -1 8.66151e-08
-150 -200 135 4.12035e-08 -1 4.94106e-08
-63.0675 -200 84.0991 0 -1 0
-45.422 -200 89.6826 0 -1 0
-27.2734 -200 93.311 0 -1 0
-8.83745 -200 94.9412 0 -1 0
150 -200 135 -4.21649e-08 -1 4.78194e-08
9.66633 -200 94.5538 0 -1 0
28.0178 -200 92.1535 0 -1 0
45.9987 -200 87.7686 0 -1 0
63.3951 -200 81.4516 0 -1 0
80 -200 73.2773 -8.29899e-08 -1 8.73578e-08
150 -200 -135 -2.50178e-08 -1 1.27602e-07
50 -200 40 -6.50997e-08 -1 1.07931e-07
30.1277 -200 43.1962 1.86335e-08 -1 1.55053e-07
10.0639 -200 44.7994 5.81468e-09 -1 1.45774e-07
-10.0639 -200 44.7994 -6.68176e-10 -1 1.41786e-07
-150 -60 40 -1 0 0
-150 -200 -135 -1 0 0
-150 -100 75 -1 0 0
-150 -200 135 -1 0 0
-150 -80.6917 83.3137 -1 0 0
-150 -60.6094 89.5285 -1 0 0
-150 -39.9804 93.5742 -1 0 0
-150 -19.0382 95.405 -1 0 0
-150 200 135 -1 0 0
-150 1.97985 95 -1 0 0
-150 22.836 92.3639 -1 0 0
-150 43.2939 87.5266 -1 0 0
-150 63.1219 80.5427 -1 0 0
-150 82.0956 71.4915 -1 0 0
-150 100 60.4754 -1 0 0
-150 200 -135 -1 0 0
-150 60 40 -1 0 0
-150 36.1065 43.1974 -1 0 0
-150 12.0533 44.7996 -1 0 0
-150 -12.0533 44.7996 -1 0 0
-150 -36.1065 43.1974 -1 0 0
-50 200 40 -7.03413e-08 1 -1.04936e-07
-150 200 -135 -2.49266e-08 1 -1.27137e-07
-80 200 76.627 -8.22843e-08 1 -8.66151e-08
-150 200 135 -4.12035e-08 1 -4.94106e-08
-63.0675 200 84.0991 0 1 0
-45.422 200 89.6825 0 1 0
-27.2734 200 93.311 0 1 0
-8.83745 200 94.9412 0 1 0
150 200 135 4.21649e-08 1 -4.78194e-08
9.66633 200 94.5538 0 1 0
28.0178 200 92.1534 0 1 0
45.9987 200 87.7686 0 1 0
63.3951 200 81.4515 0 1 0
80 200 73.2773 8.29899e-08 1 -8.73578e-08
150 200 -135 2.60471e-08 1 -1.2704e-07
50 200 40 6.50997e-08 1 -1.07931e-07
30.1277 200 43.1962 -1.86335e-08 1 -1.55053e-07
10.0639 200 44.7994 -6.68176e-10 1 -1.41786e-07
-10.0639 200 44.7994 5.81468e-09 1 -1.45774e-07
-30.1277 200 43.1962 1.86335e-08 1 -1.55053e-07
140 190 135 -2.64556e-08 2.64556e-08 1
-150 200 135 2.59157e-08 2.59158e-08 1
-140 190 135 -6.08584e-14 4.792e-08 1
-150 -200 135 -4.74347e-14 3.73502e-08 1
-140 -190 135 -3.8479e-08 3.8479e-08 1
140 -190 135 4.74347e-14 3.73502e-08 1
150 -200 135 3.62805e-08 3.62805e-08 1
150 200 135 5.97315e-14 4.70327e-08 1
150 200 -135 0 -6.34995e-08 -1
150 -200 -135 0 -6.34997e-08 -1
-150 200 -135 0 -6.34997e-08 -1
-150 -200 -135 0 -6.34995e-08 -1
3 0 1 2
3 2 1 3
3 4 5 6
3 6 5 7
3 8 9 10
3 10 9 11
3 12 13 14
3 14 13 15
3 16 17 18
3 18 17 19
3 20 21 22
3 22 21 23
3 24 25 26
3 26 25 27
3 28 29 30
3 30 29 31
3 32 33 34
3 34 33 35
3 36 37 38
3 38 37 39
3 40 41 42
3 42 41 43
3 44 45 46
3 46 45 47
3 48 49 50
3 50 49 51
3 52 53 54
3 54 53 55
3 56 57 58
3 58 57 59
3 60 61 62
3 62 61 63
3 64 65 66
3 66 65 67
3 68 69 70
3 70 69 71
3 72 73 74
3 74 73 75
3 76 77 78
3 78 77 79
3 80 81 82
3 82 81 83
3 84 85 86
3 86 85 87
3 88 89 90
3 90 89 91
3 92 93 94
3 94 93 95
3 96 97 98
3 98 97 99
3 100 101 102
3 102 101 103
3 104 105 106
3 106 105 107
3 108 109 110
3 110 109 111
3 112 113 114
3 114 113 115
3 116 117 118
3 118 117 119
3 120 121 122
3 122 121 123
3 124 125 126
3 126 125 127
3 128 129 130
3 130 129 131
3 132 133 134
3 134 133 135
3 136 137 138
3 138 137 139
3 140 141 142
3 142 141 143
3 144 145 146
3 146 145 147
3 148 149 150
3 150 149 151
3 152 153 154
3 154 153 155
3 156 157 158
3 158 157 159
3 160 161 162
3 162 161 163
3 164 165 166
3 166 165 167
3 168 169 170
3 170 169 171
3 172 173 174
3 174 173 175
3 176 177 178
3 178 177 179
3 180 181 182
3 182 181 183
3 184 185 186
3 186 185 187
3 188 189 190
3 190 189 191
3 192 193 194
3 194 193 195
3 196 197 198
3 198 197 199
3 200 201 202
3 202 201 203
3 204 205 206
3 206 205 207
3 208 209 210
3 210 209 211
3 212 213 214
3 214 213 215
3 216 217 218
3 218 217 219
3 220 221 222
3 222 221 223
3 224 225 226
3 226 225 227
3 228 229 230
3 230 229 231
3 232 233 234
3 234 233 235
3 236 237 238
3 238 237 239
3 240 241 242
3 242 241 243
3 244 245 246
3 246 245 247
3 248 249 250
3 250 249 251
3 252 253 254
3 254 253 255
3 256 257 258
3 258 257 259
3 260 261 262
3 262 261 263
3 264 265 266
3 266 265 267
3 266 267 268
3 268 267 269
3 268 269 270
3 270 271 268
3 268 271 272
3 268 272 273
3 273 272 274
3 273 274 275
3 275 276 273
3 273 276 277
3 273 277 278
3 273 278 279
3 279 278 280
3 279 280 281
3 281 282 279
3 279 282 283
3 279 283 266
3 266 283 264
3 284 285 286
3 286 285 287
3 286 287 288
3 288 287 289
3 288 289 290
3 290 291 288
3 288 291 292
3 288 292 293
3 293 292 294
3 293 294 295
3 295 296 293
3 293 296 297
3 293 297 298
3 298 299 293
3 293 299 300
3 300 299 301
3 300 301 302
3 302 303 300
3 300 303 304
3 300 304 286
3 286 304 284
3 305 306 307
3 307 306 308
3 307 308 309
3 309 308 310
3 310 308 311
3 311 308 312
3 312 308 313
3 312 313 314
3 314 313 315
3 315 313 316
3 316 313 317
3 317 313 318
3 318 313 319
3 318 319 320
3 320 319 321
3 321 319 322
3 322 319 306
3 322 306 323
3 323 306 324
3 324 306 305
3 325 326 327
3 327 326 328
3 327 328 329
3 329 328 330
3 330 328 331
3 331 328 332
3 332 328 333
3 332 333 334
3 334 333 335
3 335 333 336
3 336 333 337
3 337 333 338
3 338 333 339
3 339 333 340
3 339 340 341
3 341 340 342
3 342 340 343
3 343 340 326
3 343 326 344
3 344 326 345
3 345 326 325
3 346 347 348
3 348 347 349
3 350 351 352
3 352 351 353
3 352 353 354
3 354 353 355
3 354 355 356
3 356 357 354
3 354 357 358
3 354 358 359
3 359 358 360
3 359 360 361
3 361 362 359
3 359 362 363
3 359 363 364
3 364 365 359
3 359 365 366
3 366 365 367
3 366 367 368
3 368 369 366
3 366 369 370
3 366 370 352
3 352 370 350
3 371 372 373
3 373 372 374
3 373 374 375
3 375 374 376
3 375 376 377
3 377 378 375
3 375 378 379
3 375 379 380
3 380 379 381
3 380 381 382
3 382 383 380
3 380 383 384
3 380 384 385
3 380 385 386
3 386 385 387
3 386 387 388
3 388 389 386
3 386 389 390
3 386 390 373
3 373 390 371
3 391 392 393
3 393 392 394
3 393 394 395
3 395 394 396
3 396 394 397
3 397 394 398
3 398 394 399
3 398 399 400
3 400 399 401
3 401 399 402
3 402 399 403
3 403 399 404
3 404 399 405
3 405 399 406
3 405 406 407
3 407 406 408
3 408 406 409
3 409 406 392
3 409 392 410
3 410 392 411
3 411 392 391
3 412 413 414
3 414 413 415
3 414 415 416
3 416 415 417
3 417 415 418
3 418 415 419
3 419 415 420
3 419 420 421
3 421 420 422
3 422 420 423
3 423 420 424
3 424 420 425
3 425 420 426
3 425 426 427
3 427 426 428
3 428 426 429
3 429 426 413
3 429 413 430
3 430 413 431
3 431 413 412
3 432 433 434
3 434 433 435
3 434 435 436
3 436 435 437
3 437 435 438
3 437 438 439
3 433 432 439
3 439 432 437
3 440 441 442
3 442 441 443
