ply
format ascii 1.0
comment Created by Open3D
element vertex 24
property double x
property double y
property double z
property double nx
property double ny
property double nz
element face 12
property list uchar uint vertex_indices
end_header
170 -190 -171 1 -4.44249e-06 -4.44249e-06
170 190 -171 1 2.22125e-06 -2.22125e-06
170 -190 171 1 -2.22125e-06 2.22125e-06
170 190 171 1 4.44249e-06 4.44249e-06
-170 -190 -171 -4.96514e-06 -1 -5.03941e-06
170 -190 -171 2.48257e-06 -1 -2.55684e-06
-170 -190 171 -2.48257e-06 -1 2.40831e-06
170 -190 171 4.96514e-06 -1 4.89087e-06
-170 190 -171 -1 4.44249e-06 -4.44249e-06
-170 -190 -171 -1 -2.22125e-06 -2.22125e-06
-170 190 171 -1 2.22125e-06 2.22125e-06
-170 -190 171 -1 -4.44249e-06 4.44249e-06
170 190 -171 4.96514e-06 1 -4.89087e-06
-170 190 -171 -2.48257e-06 1 -2.40831e-06
170 190 171 2.48257e-06 1 2.55684e-06
-170 190 171 -4.96514e-06 1 5.03941e-06
-170 190 171 -4.46863e-06 4.40178e-06 1
-170 -190 171 -2.23432e-06 -2.30116e-06 1
170 190 171 2.23432e-06 2.16748e-06 1
170 -190 171 4.46863e-06 -4.53547e-06 1
170 190 -171 4.46863e-06 4.53547e-06 -1
170 -190 -171 2.23432e-06 -2.16748e-06 -1
-170 190 -171 -2.23432e-06 2.30116e-06 -1
-170 -190 -171 -4.46863e-06 -4.40178e-06 -1
3 0 1 2
3 2 1 3
3 4 5 6
3 6 5 7
3 8 9 10
3 10 9 11
3 12 13 14
3 14 13 15
3 16 17 18
3 18 17 19
3 20 21 22
3 22 21 23
