ply
format ascii 1.0
comment Created by Open3D
element vertex 702
property double x
property double y
property double z
property double nx
property double ny
property double nz
element face 284
property list uchar uint vertex_indices
end_header
196.825 290 115 0 0 -1
183.564 284.914 115 0 0 -1
-196.825 290 115 0 0 -1
-189.914 284.914 115 0 0 -1
-191.501 284.488 115 0 0 -1
200 286.825 115 3.36801e-08 -8.78136e-08 -1
198.413 289.575 115 0 0 -1
186.739 281.739 115 8.51221e-14 -8.88836e-08 -1
186.313 283.326 115 0 0 -1
199.575 288.412 115 0 0 -1
200 -286.825 115 8.52035e-14 -8.89686e-08 -1
186.739 -281.739 115 -3.4217e-08 -8.92139e-08 -1
196.825 -290 115 0 0 -1
186.313 -283.326 115 0 0 -1
185.151 -284.488 115 0 0 -1
183.564 -284.914 115 0 0 -1
-196.825 -290 115 0 0 -1
-189.914 -284.914 115 0 0 -1
-191.501 -284.488 115 0 0 -1
-192.663 -283.326 115 0 0 -1
-193.089 -281.739 115 -1.63177e-13 -8.87995e-08 -1
-200 -286.825 115 6.44537e-08 -8.75808e-08 -1
-200 286.825 115 -1.63268e-13 -8.8849e-08 -1
199.575 -288.412 115 0 0 -1
198.413 -289.575 115 0 0 -1
-198.413 -289.575 115 0 0 -1
-199.575 -288.412 115 0 0 -1
-199.575 288.412 115 0 0 -1
-198.413 289.575 115 0 0 -1
-193.089 281.739 115 -6.55313e-08 -8.90446e-08 -1
-192.663 283.326 115 0 0 -1
185.151 284.488 115 0 0 -1
196.825 290 115 0 0.996546 0.0830453
-196.825 290 115 0 0.996546 0.0830453
186.15 287.5 145 0 0.996546 0.0830453
-192.5 287.5 145 0 0.996546 0.0830453
-192.5 287.5 145 -0.257026 0.959296 0.116996
-196.825 290 115 -0.257026 0.959296 0.116996
-194.088 287.075 145 -0.257026 0.959296 0.116996
-194.088 287.075 145 -0.257034 0.959294 0.116997
-196.825 290 115 -0.257034 0.959294 0.116997
-198.413 289.575 115 -0.257034 0.959294 0.116997
-194.088 287.075 145 -0.698147 0.698116 0.158825
-198.413 289.575 115 -0.698147 0.698116 0.158825
-195.25 285.912 145 -0.698147 0.698116 0.158825
-199.575 288.412 115 -0.698147 0.698116 0.158825
-195.25 285.912 145 -0.953667 0.255552 0.158782
-199.575 288.412 115 -0.953667 0.255552 0.158782
-200 286.825 115 -0.953667 0.255552 0.158782
-200 286.825 115 -0.953671 0.255538 0.158783
-195.675 284.325 145 -0.953671 0.255538 0.158783
-195.25 285.912 145 -0.953671 0.255538 0.158783
-200 286.825 115 -0.989767 1.26354e-08 0.142692
-200 -286.825 115 -0.989767 1.26911e-08 0.142692
-195.675 284.325 145 -0.989767 1.26911e-08 0.142692
-195.675 -284.325 145 -0.989767 1.27465e-08 0.142692
-195.675 -284.325 145 -0.953671 -0.255538 0.158783
-200 -286.825 115 -0.953671 -0.255538 0.158783
-195.25 -285.912 145 -0.953671 -0.255538 0.158783
-195.25 -285.912 145 -0.953667 -0.255552 0.158782
-200 -286.825 115 -0.953667 -0.255552 0.158782
-199.575 -288.412 115 -0.953667 -0.255552 0.158782
-195.25 -285.912 145 -0.698139 -0.698124 0.158825
-199.575 -288.412 115 -0.698139 -0.698124 0.158825
-198.413 -289.575 115 -0.698139 -0.698124 0.158825
-194.088 -287.075 145 -0.698139 -0.698124 0.158825
-194.088 -287.075 145 -0.257048 -0.95929 0.116998
-198.413 -289.575 115 -0.257048 -0.95929 0.116998
-196.825 -290 115 -0.257048 -0.95929 0.116998
-194.088 -287.075 145 -0.25704 -0.959292 0.116998
-196.825 -290 115 -0.25704 -0.959292 0.116998
-192.5 -287.5 145 -0.25704 -0.959292 0.116998
196.825 -290 115 0 -0.996546 0.0830453
186.15 -287.5 145 0 -0.996546 0.0830453
-196.825 -290 115 0 -0.996546 0.0830453
-192.5 -287.5 145 0 -0.996546 0.0830453
186.15 -287.5 145 0.255051 -0.951852 0.170076
196.825 -290 115 0.255051 -0.951852 0.170076
187.737 -287.075 145 0.255051 -0.951852 0.170076
198.413 -289.575 115 0.255051 -0.951852 0.170076
187.737 -287.075 145 0.675295 -0.675295 0.296567
198.413 -289.575 115 0.675295 -0.675295 0.296567
188.9 -285.912 145 0.675295 -0.675295 0.296567
188.9 -285.912 145 0.675295 -0.675295 0.296567
198.413 -289.575 115 0.675295 -0.675295 0.296567
199.575 -288.412 115 0.675295 -0.675295 0.296567
188.9 -285.912 145 0.907291 -0.24311 0.343104
199.575 -288.412 115 0.907291 -0.24311 0.343104
189.325 -284.325 145 0.907291 -0.24311 0.343104
200 -286.825 115 0.907291 -0.24311 0.343104
200 -286.825 115 0.942132 2.9686e-08 0.335242
200 286.825 115 0.942132 2.98167e-08 0.335242
189.325 -284.325 145 0.942132 2.98167e-08 0.335242
189.325 284.325 145 0.942132 2.9947e-08 0.335242
200 286.825 115 0.907291 0.24311 0.343104
199.575 288.412 115 0.907291 0.24311 0.343104
189.325 284.325 145 0.907291 0.24311 0.343104
188.9 285.912 145 0.907291 0.24311 0.343104
188.9 285.912 145 0.675302 0.675288 0.296569
199.575 288.412 115 0.675302 0.675288 0.296569
198.413 289.575 115 0.675302 0.675288 0.296569
187.737 287.075 145 0.675302 0.675288 0.296569
187.737 287.075 145 0.255037 0.951857 0.170072
198.413 289.575 115 0.255037 0.951857 0.170072
196.825 290 115 0.255037 0.951857 0.170072
186.15 287.5 145 0.255037 0.951857 0.170072
161.4 262.75 -142.098 0 0.996305 -0.0858882
-167.75 262.75 -142.098 0 0.996305 -0.0858882
183.564 284.914 115 0 0.996305 -0.0858882
-189.914 284.914 115 0 0.996305 -0.0858882
164.575 -259.575 -142.098 0.996305 -8.4043e-09 -0.0858884
164.575 259.575 -142.098 0.996305 -8.06023e-09 -0.0858884
186.739 -281.739 115 0.996305 -8.06023e-09 -0.0858884
186.739 281.739 115 0.996305 -7.74317e-09 -0.0858884
164.575 259.575 -142.098 0.977231 0.186943 -0.10036
164.35 260.746 -142.107 0.977231 0.186943 -0.10036
186.739 281.739 115 0.977231 0.186943 -0.10036
186.739 281.739 115 0.96062 0.2574 -0.104666
164.35 260.746 -142.107 0.96062 0.2574 -0.104666
186.313 283.326 115 0.96062 0.2574 -0.104666
186.313 283.326 115 0.828473 0.547275 -0.118835
164.35 260.746 -142.107 0.828473 0.547275 -0.118835
163.642 261.817 -142.114 0.828473 0.547275 -0.118835
186.313 283.326 115 0.701952 0.701937 -0.120617
163.642 261.817 -142.114 0.701952 0.701937 -0.120617
185.151 284.488 115 0.701952 0.701937 -0.120617
185.151 284.488 115 0.546203 0.829185 -0.118808
163.642 261.817 -142.114 0.546203 0.829185 -0.118808
162.572 262.523 -142.107 0.546203 0.829185 -0.118808
185.151 284.488 115 0.257385 0.960623 -0.104672
162.572 262.523 -142.107 0.257385 0.960623 -0.104672
183.564 284.914 115 0.257385 0.960623 -0.104672
183.564 284.914 115 0.188533 0.976914 -0.100469
162.572 262.523 -142.107 0.188533 0.976914 -0.100469
161.4 262.75 -142.098 0.188533 0.976914 -0.100469
161.4 -262.75 -142.098 0.186939 -0.977232 -0.10036
162.571 -262.525 -142.107 0.186939 -0.977232 -0.10036
183.564 -284.914 115 0.186939 -0.977232 -0.10036
183.564 -284.914 115 0.2574 -0.96062 -0.104666
162.571 -262.525 -142.107 0.2574 -0.96062 -0.104666
185.151 -284.488 115 0.2574 -0.96062 -0.104666
185.151 -284.488 115 0.547275 -0.828473 -0.118835
162.571 -262.525 -142.107 0.547275 -0.828473 -0.118835
163.642 -261.817 -142.114 0.547275 -0.828473 -0.118835
185.151 -284.488 115 0.701944 -0.701944 -0.120617
163.642 -261.817 -142.114 0.701944 -0.701944 -0.120617
186.313 -283.326 115 0.701944 -0.701944 -0.120617
186.313 -283.326 115 0.829194 -0.546189 -0.118808
163.642 -261.817 -142.114 0.829194 -0.546189 -0.118808
164.348 -260.747 -142.107 0.829194 -0.546189 -0.118808
186.313 -283.326 115 0.960619 -0.2574 -0.104673
164.348 -260.747 -142.107 0.960619 -0.2574 -0.104673
186.739 -281.739 115 0.960619 -0.2574 -0.104673
186.739 -281.739 115 0.976914 -0.188533 -0.10047
164.348 -260.747 -142.107 0.976914 -0.188533 -0.10047
164.575 -259.575 -142.098 0.976914 -0.188533 -0.10047
-167.75 262.75 -142.098 -0.186939 0.977232 -0.100359
-168.921 262.525 -142.107 -0.186939 0.977232 -0.100359
-189.914 284.914 115 -0.186939 0.977232 -0.100359
-189.914 284.914 115 -0.257382 0.960625 -0.104665
-168.921 262.525 -142.107 -0.257382 0.960625 -0.104665
-191.501 284.488 115 -0.257382 0.960625 -0.104665
-191.501 284.488 115 -0.547289 0.828464 -0.118836
-168.921 262.525 -142.107 -0.547289 0.828464 -0.118836
-169.992 261.817 -142.114 -0.547289 0.828464 -0.118836
-191.501 284.488 115 -0.70196 0.701929 -0.120617
-169.992 261.817 -142.114 -0.70196 0.701929 -0.120617
-192.663 283.326 115 -0.70196 0.701929 -0.120617
-192.663 283.326 115 -0.829188 0.546198 -0.118808
-169.992 261.817 -142.114 -0.829188 0.546198 -0.118808
-170.698 260.747 -142.107 -0.829188 0.546198 -0.118808
-192.663 283.326 115 -0.960619 0.2574 -0.104673
-170.698 260.747 -142.107 -0.960619 0.2574 -0.104673
-193.089 281.739 115 -0.960619 0.2574 -0.104673
-193.089 281.739 115 -0.976914 0.188533 -0.100469
-170.698 260.747 -142.107 -0.976914 0.188533 -0.100469
-170.925 259.575 -142.098 -0.976914 0.188533 -0.100469
-192.5 287.5 145 2.30202e-23 8.8354e-08 1
-192.5 -287.5 145 3.6885e-10 8.83469e-08 1
186.15 287.5 145 3.6885e-10 8.83469e-08 1
186.15 -287.5 145 -3.86936e-23 8.8354e-08 1
189.325 284.325 145 -2.35493e-21 8.86908e-08 1
189.325 -284.325 145 -8.90365e-08 8.90365e-08 1
187.737 -287.075 145 0 0 1
188.9 -285.912 145 0 0 1
-194.088 287.075 145 0 0 1
-195.675 284.325 145 -8.90365e-08 8.90365e-08 1
-195.675 -284.325 145 1.40104e-21 8.86908e-08 1
-194.088 -287.075 145 0 0 1
-195.25 -285.912 145 0 0 1
-195.25 285.912 145 0 0 1
188.9 285.912 145 0 0 1
187.737 287.075 145 0 0 1
-170.925 259.575 -142.098 -0.996305 -8.4043e-09 -0.0858883
-170.925 -259.575 -142.098 -0.996305 -8.06022e-09 -0.0858883
-193.089 281.739 115 -0.996305 -8.06022e-09 -0.0858883
-193.089 -281.739 115 -0.996305 -7.74316e-09 -0.0858883
-170.925 -259.575 -142.098 -0.977232 -0.186939 -0.10036
-170.7 -260.746 -142.107 -0.977232 -0.186939 -0.10036
-193.089 -281.739 115 -0.977232 -0.186939 -0.10036
-193.089 -281.739 115 -0.96062 -0.2574 -0.104666
-170.7 -260.746 -142.107 -0.96062 -0.2574 -0.104666
-192.663 -283.326 115 -0.96062 -0.2574 -0.104666
-192.663 -283.326 115 -0.828473 -0.547275 -0.118835
-170.7 -260.746 -142.107 -0.828473 -0.547275 -0.118835
-169.992 -261.817 -142.114 -0.828473 -0.547275 -0.118835
-192.663 -283.326 115 -0.701952 -0.701937 -0.120617
-169.992 -261.817 -142.114 -0.701952 -0.701937 -0.120617
-191.501 -284.488 115 -0.701952 -0.701937 -0.120617
-191.501 -284.488 115 -0.546189 -0.829194 -0.118808
-169.992 -261.817 -142.114 -0.546189 -0.829194 -0.118808
-168.922 -262.523 -142.107 -0.546189 -0.829194 -0.118808
-191.501 -284.488 115 -0.257396 -0.96062 -0.104673
-168.922 -262.523 -142.107 -0.257396 -0.96062 -0.104673
-189.914 -284.914 115 -0.257396 -0.96062 -0.104673
-189.914 -284.914 115 -0.188533 -0.976914 -0.100469
-168.922 -262.523 -142.107 -0.188533 -0.976914 -0.100469
-167.75 -262.75 -142.098 -0.188533 -0.976914 -0.100469
-167.75 -262.75 -142.098 0 -0.996305 -0.0858883
161.4 -262.75 -142.098 0 -0.996305 -0.0858883
-189.914 -284.914 115 0 -0.996305 -0.0858883
183.564 -284.914 115 0 -0.996305 -0.0858883
-167.762 -259.587 -145 0 -9.78472e-08 -1
-167.762 259.587 -145 0 -9.78475e-08 -1
161.412 -259.587 -145 0 -9.78475e-08 -1
161.412 259.587 -145 0 -9.78472e-08 -1
161.412 -259.587 -145 0.184527 -9.60097e-08 -0.982827
161.412 259.587 -145 0.184527 -9.60097e-08 -0.982827
162.564 -259.584 -144.784 0.184527 -9.60097e-08 -0.982827
162.564 -259.584 -144.784 0.184527 -9.60107e-08 -0.982827
161.412 259.587 -145 0.184527 -9.60107e-08 -0.982827
162.564 259.584 -144.784 0.184527 -9.60107e-08 -0.982827
162.564 -259.584 -144.784 0.528474 -8.3001e-08 -0.848949
162.564 259.584 -144.784 0.528474 -8.29324e-08 -0.848949
163.558 259.581 -144.165 0.528474 -8.3001e-08 -0.848949
163.558 -259.581 -144.164 0.528474 -8.29333e-08 -0.848949
163.558 -259.581 -144.164 0.800429 -5.86061e-08 -0.599428
163.558 259.581 -144.165 0.800429 -5.85577e-08 -0.599428
164.261 259.578 -143.227 0.800429 -5.86061e-08 -0.599428
164.261 -259.578 -143.227 0.800429 -5.85584e-08 -0.599428
164.261 -259.578 -143.227 0.963346 -2.62067e-08 -0.268262
164.261 259.578 -143.227 0.963346 -2.62283e-08 -0.268262
164.575 -259.575 -142.098 0.963346 -2.62283e-08 -0.268262
164.575 259.575 -142.098 0.963346 -2.62069e-08 -0.268262
161.412 259.587 -145 0 0.184531 -0.982827
-167.762 259.587 -145 0 0.184531 -0.982827
161.409 260.739 -144.784 0 0.184531 -0.982827
-167.759 260.739 -144.784 0 0.184531 -0.982827
161.409 260.739 -144.784 0 0.528465 -0.848955
-167.759 260.739 -144.784 0 0.528465 -0.848955
-167.756 261.733 -144.165 0 0.528465 -0.848955
161.406 261.733 -144.165 0 0.528465 -0.848955
161.406 261.733 -144.165 0 0.800439 -0.599414
-167.756 261.733 -144.165 0 0.800439 -0.599414
-167.753 262.436 -143.227 0 0.800439 -0.599414
161.403 262.436 -143.227 0 0.800439 -0.599414
161.403 262.436 -143.227 0 0.96334 -0.268282
-167.753 262.436 -143.227 0 0.96334 -0.268282
161.4 262.75 -142.098 0 0.96334 -0.268282
-167.75 262.75 -142.098 0 0.96334 -0.268282
-167.762 259.587 -145 -0.184531 -9.60096e-08 -0.982827
-167.762 -259.587 -145 -0.184531 -9.6089e-08 -0.982827
-168.914 259.584 -144.784 -0.184531 -9.6089e-08 -0.982827
-168.914 -259.584 -144.784 -0.184531 -9.60107e-08 -0.982827
-168.914 259.584 -144.784 -0.528465 -8.30016e-08 -0.848955
-168.914 -259.584 -144.784 -0.528465 -8.2933e-08 -0.848955
-169.908 -259.581 -144.164 -0.528465 -8.30016e-08 -0.848955
-169.908 259.581 -144.165 -0.528465 -8.29339e-08 -0.848955
-169.908 259.581 -144.165 -0.800439 -5.86048e-08 -0.599414
-169.908 -259.581 -144.164 -0.800439 -5.85564e-08 -0.599414
-170.611 -259.578 -143.227 -0.800439 -5.86048e-08 -0.599414
-170.611 259.578 -143.227 -0.800439 -5.8557e-08 -0.599414
-170.611 259.578 -143.227 -0.96334 -2.62086e-08 -0.268282
-170.611 -259.578 -143.227 -0.96334 -2.62303e-08 -0.268282
-170.925 259.575 -142.098 -0.96334 -2.62303e-08 -0.268282
-170.925 -259.575 -142.098 -0.96334 -2.62089e-08 -0.268282
161.4 -262.75 -142.098 0 -0.963346 -0.268262
-167.75 -262.75 -142.098 0 -0.963346 -0.268262
161.403 -262.436 -143.227 0 -0.963346 -0.268262
-167.753 -262.436 -143.227 0 -0.963346 -0.268262
161.403 -262.436 -143.227 0 -0.800429 -0.599428
-167.753 -262.436 -143.227 0 -0.800429 -0.599428
-167.756 -261.733 -144.164 0 -0.800429 -0.599428
161.403 -262.436 -143.227 0 -0.800429 -0.599428
-167.756 -261.733 -144.164 0 -0.800429 -0.599428
161.406 -261.733 -144.164 0 -0.800429 -0.599428
161.406 -261.733 -144.164 0 -0.528474 -0.848949
-167.756 -261.733 -144.164 0 -0.528474 -0.848949
-167.759 -260.739 -144.784 0 -0.528474 -0.848949
161.409 -260.739 -144.784 0 -0.528474 -0.848949
161.409 -260.739 -144.784 0 -0.184527 -0.982827
-167.759 -260.739 -144.784 0 -0.184527 -0.982827
161.412 -259.587 -145 0 -0.184527 -0.982827
-167.762 -259.587 -145 0 -0.184527 -0.982827
162.571 -262.525 -142.107 0.181845 -0.955915 -0.230562
161.4 -262.75 -142.098 0.181845 -0.955915 -0.230562
162.09 -262.345 -143.231 0.181845 -0.955915 -0.230562
162.09 -262.345 -143.231 0.12387 -0.95601 -0.265896
161.4 -262.75 -142.098 0.12387 -0.95601 -0.265896
161.403 -262.436 -143.227 0.12387 -0.95601 -0.265896
162.09 -262.345 -143.231 0.101121 -0.800393 -0.590886
161.403 -262.436 -143.227 0.101121 -0.800393 -0.590886
161.901 -261.669 -144.18 0.101121 -0.800393 -0.590886
161.901 -261.669 -144.18 0.0850381 -0.797657 -0.597086
161.403 -262.436 -143.227 0.0850381 -0.797657 -0.597086
161.406 -261.733 -144.164 0.0850381 -0.797657 -0.597086
161.901 -261.669 -144.18 0.0423811 -0.52809 -0.84813
161.406 -261.733 -144.164 0.0423811 -0.52809 -0.84813
161.409 -260.739 -144.784 0.0423811 -0.52809 -0.84813
161.901 -261.669 -144.18 0.0499071 -0.525064 -0.849598
161.409 -260.739 -144.784 0.0499071 -0.525064 -0.849598
161.656 -260.681 -144.805 0.0499071 -0.525064 -0.849598
161.656 -260.681 -144.805 -0.040563 -0.184276 -0.982037
161.409 -260.739 -144.784 -0.040563 -0.184276 -0.982037
161.412 -259.587 -145 -0.040563 -0.184276 -0.982037
161.412 -259.587 -145 0.184267 0.041414 -0.982003
162.564 -259.584 -144.784 0.184267 0.041414 -0.982003
162.526 -259.753 -144.798 0.184267 0.041414 -0.982003
162.526 -259.753 -144.798 0.527981 -0.0474191 -0.847931
162.564 -259.584 -144.784 0.527981 -0.0474191 -0.847931
163.558 -259.581 -144.164 0.527981 -0.0474191 -0.847931
162.526 -259.753 -144.798 0.526695 -0.0344381 -0.849356
163.558 -259.581 -144.164 0.526695 -0.0344381 -0.849356
163.527 -259.926 -144.17 0.526695 -0.0344381 -0.849356
163.527 -259.926 -144.17 0.798935 -0.062966 -0.598113
163.558 -259.581 -144.164 0.798935 -0.062966 -0.598113
164.261 -259.578 -143.227 0.798935 -0.062966 -0.598113
163.527 -259.926 -144.17 0.800511 -0.0762178 -0.594452
164.261 -259.578 -143.227 0.800511 -0.0762178 -0.594452
164.215 -260.064 -143.226 0.800511 -0.0762178 -0.594452
164.215 -260.064 -143.226 0.959449 -0.090558 -0.26694
164.261 -259.578 -143.227 0.959449 -0.090558 -0.26694
164.575 -259.575 -142.098 0.959449 -0.090558 -0.26694
164.215 -260.064 -143.226 0.956716 -0.183674 -0.225739
164.575 -259.575 -142.098 0.956716 -0.183674 -0.225739
164.348 -260.747 -142.107 0.956716 -0.183674 -0.225739
164.215 -260.064 -143.226 0.830058 -0.426753 -0.359006
164.348 -260.747 -142.107 0.830058 -0.426753 -0.359006
163.434 -261.56 -143.253 0.830058 -0.426753 -0.359006
163.434 -261.56 -143.253 0.805372 -0.529479 -0.266511
164.348 -260.747 -142.107 0.805372 -0.529479 -0.266511
163.642 -261.817 -142.114 0.805372 -0.529479 -0.266511
163.434 -261.56 -143.253 0.587282 -0.759899 -0.278663
163.642 -261.817 -142.114 0.587282 -0.759899 -0.278663
162.798 -262.053 -143.248 0.587282 -0.759899 -0.278663
162.798 -262.053 -143.248 0.535954 -0.812462 -0.229475
163.642 -261.817 -142.114 0.535954 -0.812462 -0.229475
162.571 -262.525 -142.107 0.535954 -0.812462 -0.229475
162.798 -262.053 -143.248 0.358756 -0.885606 -0.29495
162.571 -262.525 -142.107 0.358756 -0.885606 -0.29495
162.09 -262.345 -143.231 0.358756 -0.885606 -0.29495
161.656 -260.681 -144.805 0.012641 -0.172909 -0.984857
161.412 -259.587 -145 0.012641 -0.172909 -0.984857
161.945 -260.565 -144.821 0.012641 -0.172909 -0.984857
161.945 -260.565 -144.821 0.082337 -0.135389 -0.987365
161.412 -259.587 -145 0.082337 -0.135389 -0.987365
162.21 -260.364 -144.827 0.082337 -0.135389 -0.987365
162.21 -260.364 -144.827 0.172149 -0.042473 -0.984155
161.412 -259.587 -145 0.172149 -0.042473 -0.984155
162.526 -259.753 -144.798 0.172149 -0.042473 -0.984155
162.798 -262.053 -143.248 0.295524 -0.748971 -0.593049
162.09 -262.345 -143.231 0.295524 -0.748971 -0.593049
161.901 -261.669 -144.18 0.295524 -0.748971 -0.593049
161.901 -261.669 -144.18 0.162083 -0.498512 -0.851595
161.656 -260.681 -144.805 0.162083 -0.498512 -0.851595
162.442 -261.45 -144.205 0.162083 -0.498512 -0.851595
162.442 -261.45 -144.205 0.154172 -0.504835 -0.849337
161.656 -260.681 -144.805 0.154172 -0.504835 -0.849337
161.945 -260.565 -144.821 0.154172 -0.504835 -0.849337
162.442 -261.45 -144.205 0.308677 -0.42068 -0.853081
161.945 -260.565 -144.821 0.308677 -0.42068 -0.853081
162.935 -261.072 -144.213 0.308677 -0.42068 -0.853081
162.935 -261.072 -144.213 0.305108 -0.426016 -0.851716
161.945 -260.565 -144.821 0.305108 -0.426016 -0.851716
162.21 -260.364 -144.827 0.305108 -0.426016 -0.851716
162.935 -261.072 -144.213 0.493518 -0.223228 -0.8406
162.21 -260.364 -144.827 0.493518 -0.223228 -0.8406
163.527 -259.926 -144.17 0.493518 -0.223228 -0.8406
163.527 -259.926 -144.17 0.492116 -0.214311 -0.843737
162.21 -260.364 -144.827 0.492116 -0.214311 -0.843737
162.526 -259.753 -144.798 0.492116 -0.214311 -0.843737
162.935 -261.072 -144.213 0.730033 -0.355246 -0.583826
163.527 -259.926 -144.17 0.730033 -0.355246 -0.583826
164.215 -260.064 -143.226 0.730033 -0.355246 -0.583826
162.442 -261.45 -144.205 0.488382 -0.648588 -0.583795
162.935 -261.072 -144.213 0.488382 -0.648588 -0.583795
163.434 -261.56 -143.253 0.488382 -0.648588 -0.583795
163.434 -261.56 -143.253 0.732572 -0.371929 -0.570094
162.935 -261.072 -144.213 0.732572 -0.371929 -0.570094
164.215 -260.064 -143.226 0.732572 -0.371929 -0.570094
161.901 -261.669 -144.18 0.280976 -0.761433 -0.584185
162.442 -261.45 -144.205 0.280976 -0.761433 -0.584185
162.798 -262.053 -143.248 0.280976 -0.761433 -0.584185
162.798 -262.053 -143.248 0.492768 -0.641809 -0.587589
162.442 -261.45 -144.205 0.492768 -0.641809 -0.587589
163.434 -261.56 -143.253 0.492768 -0.641809 -0.587589
164.35 260.746 -142.107 0.955915 0.181848 -0.23056
164.575 259.575 -142.098 0.955915 0.181848 -0.23056
164.17 260.265 -143.231 0.955915 0.181848 -0.23056
164.17 260.265 -143.231 0.95601 0.123862 -0.265901
164.575 259.575 -142.098 0.95601 0.123862 -0.265901
164.261 259.578 -143.227 0.95601 0.123862 -0.265901
164.17 260.265 -143.231 0.800393 0.101114 -0.590887
164.261 259.578 -143.227 0.800393 0.101114 -0.590887
163.494 260.076 -144.18 0.800393 0.101114 -0.590887
163.494 260.076 -144.18 0.797658 0.0850417 -0.597084
164.261 259.578 -143.227 0.797658 0.0850417 -0.597084
163.558 259.581 -144.165 0.797658 0.0850417 -0.597084
163.494 260.076 -144.18 0.528089 0.0423824 -0.848131
163.558 259.581 -144.165 0.528089 0.0423824 -0.848131
162.564 259.584 -144.784 0.528089 0.0423824 -0.848131
163.494 260.076 -144.18 0.525066 0.0498995 -0.849597
162.564 259.584 -144.784 0.525066 0.0498995 -0.849597
162.506 259.831 -144.805 0.525066 0.0498995 -0.849597
162.506 259.831 -144.805 0.184274 -0.0405566 -0.982038
162.564 259.584 -144.784 0.184274 -0.0405566 -0.982038
161.412 259.587 -145 0.184274 -0.0405566 -0.982038
161.412 259.587 -145 -0.0414368 0.184269 -0.982002
161.409 260.739 -144.784 -0.0414368 0.184269 -0.982002
161.578 260.701 -144.798 -0.0414368 0.184269 -0.982002
161.578 260.701 -144.798 0.0473479 0.52797 -0.847942
161.409 260.739 -144.784 0.0473479 0.52797 -0.847942
161.406 261.733 -144.165 0.0473479 0.52797 -0.847942
161.578 260.701 -144.798 0.0345226 0.526699 -0.84935
161.406 261.733 -144.165 0.0345226 0.526699 -0.84935
161.751 261.702 -144.17 0.0345226 0.526699 -0.84935
161.751 261.702 -144.17 0.0630948 0.798941 -0.598091
161.406 261.733 -144.165 0.0630948 0.798941 -0.598091
161.403 262.436 -143.227 0.0630948 0.798941 -0.598091
161.751 261.702 -144.17 0.0762118 0.8005 -0.594467
161.403 262.436 -143.227 0.0762118 0.8005 -0.594467
161.889 262.39 -143.226 0.0762118 0.8005 -0.594467
161.889 262.39 -143.226 0.0905515 0.959445 -0.266958
161.403 262.436 -143.227 0.0905515 0.959445 -0.266958
161.4 262.75 -142.098 0.0905515 0.959445 -0.266958
161.889 262.39 -143.226 0.183672 0.956712 -0.225756
161.4 262.75 -142.098 0.183672 0.956712 -0.225756
162.572 262.523 -142.107 0.183672 0.956712 -0.225756
161.889 262.39 -143.226 0.426751 0.830053 -0.359021
162.572 262.523 -142.107 0.426751 0.830053 -0.359021
163.385 261.609 -143.253 0.426751 0.830053 -0.359021
163.385 261.609 -143.253 0.529492 0.805363 -0.266512
162.572 262.523 -142.107 0.529492 0.805363 -0.266512
163.642 261.817 -142.114 0.529492 0.805363 -0.266512
163.385 261.609 -143.253 0.759902 0.587278 -0.278663
163.642 261.817 -142.114 0.759902 0.587278 -0.278663
163.878 260.973 -143.248 0.759902 0.587278 -0.278663
163.878 260.973 -143.248 0.812461 0.535954 -0.229478
163.642 261.817 -142.114 0.812461 0.535954 -0.229478
164.35 260.746 -142.107 0.812461 0.535954 -0.229478
163.878 260.973 -143.248 0.885602 0.358768 -0.294949
164.35 260.746 -142.107 0.885602 0.358768 -0.294949
164.17 260.265 -143.231 0.885602 0.358768 -0.294949
162.506 259.831 -144.805 0.172909 0.012642 -0.984857
161.412 259.587 -145 0.172909 0.012642 -0.984857
162.39 260.12 -144.821 0.172909 0.012642 -0.984857
162.39 260.12 -144.821 0.135394 0.0823321 -0.987365
161.412 259.587 -145 0.135394 0.0823321 -0.987365
162.189 260.385 -144.827 0.135394 0.0823321 -0.987365
162.189 260.385 -144.827 0.0424741 0.172149 -0.984155
161.412 259.587 -145 0.0424741 0.172149 -0.984155
161.578 260.701 -144.798 0.0424741 0.172149 -0.984155
163.878 260.973 -143.248 0.748965 0.295533 -0.593053
164.17 260.265 -143.231 0.748965 0.295533 -0.593053
163.494 260.076 -144.18 0.748965 0.295533 -0.593053
163.494 260.076 -144.18 0.498517 0.162072 -0.851595
162.506 259.831 -144.805 0.498517 0.162072 -0.851595
163.275 260.617 -144.205 0.498517 0.162072 -0.851595
163.275 260.617 -144.205 0.504823 0.154182 -0.849342
162.506 259.831 -144.805 0.504823 0.154182 -0.849342
162.39 260.12 -144.821 0.504823 0.154182 -0.849342
163.275 260.617 -144.205 0.420652 0.308701 -0.853086
162.39 260.12 -144.821 0.420652 0.308701 -0.853086
162.897 261.11 -144.213 0.420652 0.308701 -0.853086
162.897 261.11 -144.213 0.42604 0.305097 -0.851708
162.39 260.12 -144.821 0.42604 0.305097 -0.851708
162.189 260.385 -144.827 0.42604 0.305097 -0.851708
162.897 261.11 -144.213 0.223237 0.493532 -0.84059
162.189 260.385 -144.827 0.223237 0.493532 -0.84059
161.751 261.702 -144.17 0.223237 0.493532 -0.84059
161.751 261.702 -144.17 0.214323 0.49213 -0.843726
162.189 260.385 -144.827 0.214323 0.49213 -0.843726
161.578 260.701 -144.798 0.214323 0.49213 -0.843726
162.897 261.11 -144.213 0.355243 0.730024 -0.583839
161.751 261.702 -144.17 0.355243 0.730024 -0.583839
161.889 262.39 -143.226 0.355243 0.730024 -0.583839
163.275 260.617 -144.205 0.648547 0.48842 -0.583809
162.897 261.11 -144.213 0.648547 0.48842 -0.583809
163.385 261.609 -143.253 0.648547 0.48842 -0.583809
163.385 261.609 -143.253 0.371925 0.732563 -0.570109
162.897 261.11 -144.213 0.371925 0.732563 -0.570109
161.889 262.39 -143.226 0.371925 0.732563 -0.570109
163.494 260.076 -144.18 0.761448 0.28096 -0.584174
163.275 260.617 -144.205 0.761448 0.28096 -0.584174
163.878 260.973 -143.248 0.761448 0.28096 -0.584174
163.878 260.973 -143.248 0.64182 0.492772 -0.587573
163.275 260.617 -144.205 0.64182 0.492772 -0.587573
163.385 261.609 -143.253 0.64182 0.492772 -0.587573
-168.921 262.525 -142.107 -0.181842 0.955911 -0.230583
-167.75 262.75 -142.098 -0.181842 0.955911 -0.230583
-168.44 262.345 -143.231 -0.181842 0.955911 -0.230583
-168.44 262.345 -143.231 -0.123868 0.956005 -0.265916
-167.75 262.75 -142.098 -0.123868 0.956005 -0.265916
-167.753 262.436 -143.227 -0.123868 0.956005 -0.265916
-168.44 262.345 -143.231 -0.10112 0.800394 -0.590885
-167.753 262.436 -143.227 -0.10112 0.800394 -0.590885
-168.251 261.669 -144.18 -0.10112 0.800394 -0.590885
-168.251 261.669 -144.18 -0.085086 0.797666 -0.597067
-167.753 262.436 -143.227 -0.085086 0.797666 -0.597067
-167.756 261.733 -144.165 -0.085086 0.797666 -0.597067
-168.251 261.669 -144.18 -0.0424101 0.528078 -0.848136
-167.756 261.733 -144.165 -0.0424101 0.528078 -0.848136
-167.759 260.739 -144.784 -0.0424101 0.528078 -0.848136
-168.251 261.669 -144.18 -0.0498723 0.525077 -0.849592
-167.759 260.739 -144.784 -0.0498723 0.525077 -0.849592
-168.006 260.681 -144.805 -0.0498723 0.525077 -0.849592
-168.006 260.681 -144.805 0.0405835 0.184278 -0.982036
-167.759 260.739 -144.784 0.0405835 0.184278 -0.982036
-167.762 259.587 -145 0.0405835 0.184278 -0.982036
-167.762 259.587 -145 -0.184271 -0.0414316 -0.982002
-168.914 259.584 -144.784 -0.184271 -0.0414316 -0.982002
-168.876 259.753 -144.798 -0.184271 -0.0414316 -0.982002
-168.876 259.753 -144.798 -0.527968 0.0473417 -0.847943
-168.914 259.584 -144.784 -0.527968 0.0473417 -0.847943
-169.908 259.581 -144.165 -0.527968 0.0473417 -0.847943
-168.876 259.753 -144.798 -0.526695 0.0344863 -0.849354
-169.908 259.581 -144.165 -0.526695 0.0344863 -0.849354
-169.877 259.926 -144.17 -0.526695 0.0344863 -0.849354
-169.877 259.926 -144.17 -0.798945 0.0630409 -0.598091
-169.908 259.581 -144.165 -0.798945 0.0630409 -0.598091
-170.611 259.578 -143.227 -0.798945 0.0630409 -0.598091
-169.877 259.926 -144.17 -0.800505 0.0761652 -0.594466
-170.611 259.578 -143.227 -0.800505 0.0761652 -0.594466
-170.565 260.064 -143.226 -0.800505 0.0761652 -0.594466
-170.565 260.064 -143.226 -0.959448 0.0904962 -0.266963
-170.611 259.578 -143.227 -0.959448 0.0904962 -0.266963
-170.925 259.575 -142.098 -0.959448 0.0904962 -0.266963
-170.565 260.064 -143.226 -0.956717 0.183673 -0.225737
-170.925 259.575 -142.098 -0.956717 0.183673 -0.225737
-170.698 260.747 -142.107 -0.956717 0.183673 -0.225737
-170.565 260.064 -143.226 -0.830054 0.426759 -0.359008
-170.698 260.747 -142.107 -0.830054 0.426759 -0.359008
-169.784 261.56 -143.253 -0.830054 0.426759 -0.359008
-169.784 261.56 -143.253 -0.805367 0.529486 -0.266513
-170.698 260.747 -142.107 -0.805367 0.529486 -0.266513
-169.992 261.817 -142.114 -0.805367 0.529486 -0.266513
-169.784 261.56 -143.253 -0.587287 0.759895 -0.278665
-169.992 261.817 -142.114 -0.587287 0.759895 -0.278665
-169.148 262.053 -143.248 -0.587287 0.759895 -0.278665
-169.148 262.053 -143.248 -0.535967 0.812451 -0.229483
-169.992 261.817 -142.114 -0.535967 0.812451 -0.229483
-168.921 262.525 -142.107 -0.535967 0.812451 -0.229483
-169.148 262.053 -143.248 -0.35874 0.885607 -0.294967
-168.921 262.525 -142.107 -0.35874 0.885607 -0.294967
-168.44 262.345 -143.231 -0.35874 0.885607 -0.294967
-168.006 260.681 -144.805 -0.0126498 0.172907 -0.984857
-167.762 259.587 -145 -0.0126498 0.172907 -0.984857
-168.295 260.565 -144.821 -0.0126498 0.172907 -0.984857
-168.295 260.565 -144.821 -0.0823348 0.135394 -0.987365
-167.762 259.587 -145 -0.0823348 0.135394 -0.987365
-168.56 260.364 -144.827 -0.0823348 0.135394 -0.987365
-168.56 260.364 -144.827 -0.172152 0.0424715 -0.984154
-167.762 259.587 -145 -0.172152 0.0424715 -0.984154
-168.876 259.753 -144.798 -0.172152 0.0424715 -0.984154
-169.148 262.053 -143.248 -0.295513 0.748977 -0.593048
-168.44 262.345 -143.231 -0.295513 0.748977 -0.593048
-168.251 261.669 -144.18 -0.295513 0.748977 -0.593048
-168.251 261.669 -144.18 -0.162044 0.498526 -0.851595
-168.006 260.681 -144.805 -0.162044 0.498526 -0.851595
-168.792 261.45 -144.205 -0.162044 0.498526 -0.851595
-168.792 261.45 -144.205 -0.154182 0.504809 -0.84935
-168.006 260.681 -144.805 -0.154182 0.504809 -0.84935
-168.295 260.565 -144.821 -0.154182 0.504809 -0.84935
-168.792 261.45 -144.205 -0.308716 0.420633 -0.85309
-168.295 260.565 -144.821 -0.308716 0.420633 -0.85309
-169.285 261.072 -144.213 -0.308716 0.420633 -0.85309
-169.285 261.072 -144.213 -0.305102 0.426037 -0.851707
-168.295 260.565 -144.821 -0.305102 0.426037 -0.851707
-168.56 260.364 -144.827 -0.305102 0.426037 -0.851707
-169.285 261.072 -144.213 -0.493529 0.223246 -0.840589
-168.56 260.364 -144.827 -0.493529 0.223246 -0.840589
-169.877 259.926 -144.17 -0.493529 0.223246 -0.840589
-169.877 259.926 -144.17 -0.492124 0.214308 -0.843734
-168.56 260.364 -144.827 -0.492124 0.214308 -0.843734
-168.876 259.753 -144.798 -0.492124 0.214308 -0.843734
-169.285 261.072 -144.213 -0.730015 0.355254 -0.583842
-169.877 259.926 -144.17 -0.730015 0.355254 -0.583842
-170.565 260.064 -143.226 -0.730015 0.355254 -0.583842
-168.792 261.45 -144.205 -0.488446 0.64852 -0.583817
-169.285 261.072 -144.213 -0.488446 0.64852 -0.583817
-169.784 261.56 -143.253 -0.488446 0.64852 -0.583817
-169.784 261.56 -143.253 -0.732553 0.371925 -0.570121
-169.285 261.072 -144.213 -0.732553 0.371925 -0.570121
-170.565 260.064 -143.226 -0.732553 0.371925 -0.570121
-168.251 261.669 -144.18 -0.280925 0.761472 -0.584159
-168.792 261.45 -144.205 -0.280925 0.761472 -0.584159
-169.148 262.053 -143.248 -0.280925 0.761472 -0.584159
-169.148 262.053 -143.248 -0.492782 0.641818 -0.587568
-168.792 261.45 -144.205 -0.492782 0.641818 -0.587568
-169.784 261.56 -143.253 -0.492782 0.641818 -0.587568
-170.7 -260.746 -142.107 -0.955915 -0.181843 -0.230563
-170.925 -259.575 -142.098 -0.955915 -0.181843 -0.230563
-170.52 -260.265 -143.231 -0.955915 -0.181843 -0.230563
-170.52 -260.265 -143.231 -0.956009 -0.123837 -0.265915
-170.925 -259.575 -142.098 -0.956009 -0.123837 -0.265915
-170.611 -259.578 -143.227 -0.956009 -0.123837 -0.265915
-170.52 -260.265 -143.231 -0.800398 -0.101095 -0.590883
-170.611 -259.578 -143.227 -0.800398 -0.101095 -0.590883
-169.844 -260.076 -144.18 -0.800398 -0.101095 -0.590883
-169.844 -260.076 -144.18 -0.797668 -0.0850476 -0.59707
-170.611 -259.578 -143.227 -0.797668 -0.0850476 -0.59707
-169.908 -259.581 -144.164 -0.797668 -0.0850476 -0.59707
-169.844 -260.076 -144.18 -0.528078 -0.0423844 -0.848138
-169.908 -259.581 -144.164 -0.528078 -0.0423844 -0.848138
-168.914 -259.584 -144.784 -0.528078 -0.0423844 -0.848138
-169.844 -260.076 -144.18 -0.52507 -0.0498638 -0.849597
-168.914 -259.584 -144.784 -0.52507 -0.0498638 -0.849597
-168.856 -259.831 -144.805 -0.52507 -0.0498638 -0.849597
-168.856 -259.831 -144.805 -0.184281 0.0405779 -0.982036
-168.914 -259.584 -144.784 -0.184281 0.0405779 -0.982036
-167.762 -259.587 -145 -0.184281 0.0405779 -0.982036
-167.762 -259.587 -145 0.0414209 -0.184267 -0.982003
-167.759 -260.739 -144.784 0.0414209 -0.184267 -0.982003
-167.928 -260.701 -144.798 0.0414209 -0.184267 -0.982003
-167.928 -260.701 -144.798 -0.0474269 -0.527981 -0.847931
-167.759 -260.739 -144.784 -0.0474269 -0.527981 -0.847931
-167.756 -261.733 -144.164 -0.0474269 -0.527981 -0.847931
-167.928 -260.701 -144.798 -0.0344373 -0.526694 -0.849357
-167.756 -261.733 -144.164 -0.0344373 -0.526694 -0.849357
-168.101 -261.702 -144.17 -0.0344373 -0.526694 -0.849357
-168.101 -261.702 -144.17 -0.0629646 -0.798935 -0.598112
-167.756 -261.733 -144.164 -0.0629646 -0.798935 -0.598112
-167.753 -262.436 -143.227 -0.0629646 -0.798935 -0.598112
-168.101 -261.702 -144.17 -0.0762126 -0.800511 -0.594453
-167.753 -262.436 -143.227 -0.0762126 -0.800511 -0.594453
-168.239 -262.39 -143.226 -0.0762126 -0.800511 -0.594453
-168.239 -262.39 -143.226 -0.0905524 -0.959449 -0.266942
-167.753 -262.436 -143.227 -0.0905524 -0.959449 -0.266942
-167.75 -262.75 -142.098 -0.0905524 -0.959449 -0.266942
-168.239 -262.39 -143.226 -0.183674 -0.956716 -0.225738
-167.75 -262.75 -142.098 -0.183674 -0.956716 -0.225738
-168.922 -262.523 -142.107 -0.183674 -0.956716 -0.225738
-168.239 -262.39 -143.226 -0.42676 -0.830054 -0.359007
-168.922 -262.523 -142.107 -0.42676 -0.830054 -0.359007
-169.735 -261.609 -143.253 -0.42676 -0.830054 -0.359007
-169.735 -261.609 -143.253 -0.529476 -0.80537 -0.266523
-168.922 -262.523 -142.107 -0.529476 -0.80537 -0.266523
-169.992 -261.817 -142.114 -0.529476 -0.80537 -0.266523
-169.735 -261.609 -143.253 -0.75989 -0.587286 -0.278681
-169.992 -261.817 -142.114 -0.75989 -0.587286 -0.278681
-170.228 -260.973 -143.248 -0.75989 -0.587286 -0.278681
-170.228 -260.973 -143.248 -0.812459 -0.535952 -0.22949
-169.992 -261.817 -142.114 -0.812459 -0.535952 -0.22949
-170.7 -260.746 -142.107 -0.812459 -0.535952 -0.22949
-170.228 -260.973 -143.248 -0.885596 -0.358774 -0.294958
-170.7 -260.746 -142.107 -0.885596 -0.358774 -0.294958
-170.52 -260.265 -143.231 -0.885596 -0.358774 -0.294958
-168.856 -259.831 -144.805 -0.172912 -0.0126373 -0.984856
-167.762 -259.587 -145 -0.172912 -0.0126373 -0.984856
-168.74 -260.12 -144.821 -0.172912 -0.0126373 -0.984856
-168.74 -260.12 -144.821 -0.135389 -0.0823392 -0.987365
-167.762 -259.587 -145 -0.135389 -0.0823392 -0.987365
-168.539 -260.385 -144.827 -0.135389 -0.0823392 -0.987365
-168.539 -260.385 -144.827 -0.0424719 -0.172151 -0.984155
-167.762 -259.587 -145 -0.0424719 -0.172151 -0.984155
-167.928 -260.701 -144.798 -0.0424719 -0.172151 -0.984155
-170.228 -260.973 -143.248 -0.748966 -0.295541 -0.593047
-170.52 -260.265 -143.231 -0.748966 -0.295541 -0.593047
-169.844 -260.076 -144.18 -0.748966 -0.295541 -0.593047
-169.844 -260.076 -144.18 -0.49851 -0.162085 -0.851597
-168.856 -259.831 -144.805 -0.49851 -0.162085 -0.851597
-169.625 -260.617 -144.205 -0.49851 -0.162085 -0.851597
-169.625 -260.617 -144.205 -0.504842 -0.154162 -0.849334
-168.856 -259.831 -144.805 -0.504842 -0.154162 -0.849334
-168.74 -260.12 -144.821 -0.504842 -0.154162 -0.849334
-169.625 -260.617 -144.205 -0.420674 -0.30869 -0.853079
-168.74 -260.12 -144.821 -0.420674 -0.30869 -0.853079
-169.247 -261.11 -144.213 -0.420674 -0.30869 -0.853079
-169.247 -261.11 -144.213 -0.426017 -0.305116 -0.851712
-168.74 -260.12 -144.821 -0.426017 -0.305116 -0.851712
-168.539 -260.385 -144.827 -0.426017 -0.305116 -0.851712
-169.247 -261.11 -144.213 -0.223233 -0.493519 -0.840599
-168.539 -260.385 -144.827 -0.223233 -0.493519 -0.840599
-168.101 -261.702 -144.17 -0.223233 -0.493519 -0.840599
-168.101 -261.702 -144.17 -0.214301 -0.492114 -0.843741
-168.539 -260.385 -144.827 -0.214301 -0.492114 -0.843741
-167.928 -260.701 -144.798 -0.214301 -0.492114 -0.843741
-169.247 -261.11 -144.213 -0.355252 -0.73003 -0.583826
-168.101 -261.702 -144.17 -0.355252 -0.73003 -0.583826
-168.239 -262.39 -143.226 -0.355252 -0.73003 -0.583826
-169.625 -260.617 -144.205 -0.648577 -0.488399 -0.583793
-169.247 -261.11 -144.213 -0.648577 -0.488399 -0.583793
-169.735 -261.609 -143.253 -0.648577 -0.488399 -0.583793
-169.735 -261.609 -143.253 -0.371935 -0.732569 -0.570094
-169.247 -261.11 -144.213 -0.371935 -0.732569 -0.570094
-168.239 -262.39 -143.226 -0.371935 -0.732569 -0.570094
-169.844 -260.076 -144.18 -0.761437 -0.280982 -0.584176
-169.625 -260.617 -144.205 -0.761437 -0.280982 -0.584176
-170.228 -260.973 -143.248 -0.761437 -0.280982 -0.584176
-170.228 -260.973 -143.248 -0.641809 -0.492778 -0.587581
-169.625 -260.617 -144.205 -0.641809 -0.492778 -0.587581
-169.735 -261.609 -143.253 -0.641809 -0.492778 -0.587581
3 0 1 2
3 2 1 3
3 2 3 4
3 5 0 6
3 0 5 7
3 0 7 8
3 6 9 5
3 5 10 7
3 7 10 11
3 11 10 12
3 11 12 13
3 13 12 14
3 14 12 15
3 15 12 16
3 15 16 17
3 17 16 18
3 18 16 19
3 19 16 20
3 20 16 21
3 20 21 22
3 23 24 10
3 10 24 12
3 16 25 21
3 21 25 26
3 27 28 22
3 22 28 2
3 22 2 29
3 29 2 30
3 30 2 4
3 29 20 22
3 31 0 8
3 0 31 1
3 32 33 34
3 34 33 35
3 36 37 38
3 39 40 41
3 42 43 44
3 44 43 45
3 46 47 48
3 49 50 51
3 52 53 54
3 54 53 55
3 56 57 58
3 59 60 61
3 62 63 64
3 62 64 65
3 66 67 68
3 69 70 71
3 72 73 74
3 74 73 75
3 76 77 78
3 78 77 79
3 80 81 82
3 83 84 85
3 86 87 88
3 88 87 89
3 90 91 92
3 92 91 93
3 94 95 96
3 96 95 97
3 98 99 100
3 98 100 101
3 102 103 104
3 102 104 105
3 106 107 108
3 108 107 109
3 110 111 112
3 112 111 113
3 114 115 116
3 117 118 119
3 120 121 122
3 123 124 125
3 126 127 128
3 129 130 131
3 132 133 134
3 135 136 137
3 138 139 140
3 141 142 143
3 144 145 146
3 147 148 149
3 150 151 152
3 153 154 155
3 156 157 158
3 159 160 161
3 162 163 164
3 165 166 167
3 168 169 170
3 171 172 173
3 174 175 176
3 177 178 179
3 179 178 180
3 179 180 181
3 181 180 182
3 182 180 183
3 182 183 184
3 185 186 177
3 177 186 187
3 177 187 178
3 178 187 188
3 188 187 189
3 185 190 186
3 191 192 181
3 181 192 179
3 193 194 195
3 195 194 196
3 197 198 199
3 200 201 202
3 203 204 205
3 206 207 208
3 209 210 211
3 212 213 214
3 215 216 217
3 218 219 220
3 220 219 221
3 222 223 224
3 224 223 225
3 226 227 228
3 229 230 231
3 232 233 234
3 232 234 235
3 236 237 238
3 236 238 239
3 240 241 242
3 242 241 243
3 244 245 246
3 246 245 247
3 248 249 250
3 248 250 251
3 252 253 254
3 252 254 255
3 256 257 258
3 258 257 259
3 260 261 262
3 262 261 263
3 264 265 266
3 264 266 267
3 268 269 270
3 268 270 271
3 272 273 274
3 274 273 275
3 276 277 278
3 278 277 279
3 280 281 282
3 283 284 285
3 286 287 288
3 286 288 289
3 290 291 292
3 292 291 293
3 294 295 296
3 297 298 299
3 300 301 302
3 303 304 305
3 306 307 308
3 309 310 311
3 312 313 314
3 315 316 317
3 318 319 320
3 321 322 323
3 324 325 326
3 327 328 329
3 330 331 332
3 333 334 335
3 336 337 338
3 339 340 341
3 342 343 344
3 345 346 347
3 348 349 350
3 351 352 353
3 354 355 356
3 357 358 359
3 360 361 362
3 363 364 365
3 366 367 368
3 369 370 371
3 372 373 374
3 375 376 377
3 378 379 380
3 381 382 383
3 384 385 386
3 387 388 389
3 390 391 392
3 393 394 395
3 396 397 398
3 399 400 401
3 402 403 404
3 405 406 407
3 408 409 410
3 411 412 413
3 414 415 416
3 417 418 419
3 420 421 422
3 423 424 425
3 426 427 428
3 429 430 431
3 432 433 434
3 435 436 437
3 438 439 440
3 441 442 443
3 444 445 446
3 447 448 449
3 450 451 452
3 453 454 455
3 456 457 458
3 459 460 461
3 462 463 464
3 465 466 467
3 468 469 470
3 471 472 473
3 474 475 476
3 477 478 479
3 480 481 482
3 483 484 485
3 486 487 488
3 489 490 491
3 492 493 494
3 495 496 497
3 498 499 500
3 501 502 503
3 504 505 506
3 507 508 509
3 510 511 512
3 513 514 515
3 516 517 518
3 519 520 521
3 522 523 524
3 525 526 527
3 528 529 530
3 531 532 533
3 534 535 536
3 537 538 539
3 540 541 542
3 543 544 545
3 546 547 548
3 549 550 551
3 552 553 554
3 555 556 557
3 558 559 560
3 561 562 563
3 564 565 566
3 567 568 569
3 570 571 572
3 573 574 575
3 576 577 578
3 579 580 581
3 582 583 584
3 585 586 587
3 588 589 590
3 591 592 593
3 594 595 596
3 597 598 599
3 600 601 602
3 603 604 605
3 606 607 608
3 609 610 611
3 612 613 614
3 615 616 617
3 618 619 620
3 621 622 623
3 624 625 626
3 627 628 629
3 630 631 632
3 633 634 635
3 636 637 638
3 639 640 641
3 642 643 644
3 645 646 647
3 648 649 650
3 651 652 653
3 654 655 656
3 657 658 659
3 660 661 662
3 663 664 665
3 666 667 668
3 669 670 671
3 672 673 674
3 675 676 677
3 678 679 680
3 681 682 683
3 684 685 686
3 687 688 689
3 690 691 692
3 693 694 695
3 696 697 698
3 699 700 701
